<?xml version="1.0" standalone="no"?>
<!DOCTYPE svg PUBLIC "-//W3C//DTD SVG 20010904//EN"
 "http://www.w3.org/TR/2001/REC-SVG-20010904/DTD/svg10.dtd">
<svg version="1.0" xmlns="http://www.w3.org/2000/svg"
 width="397.000000pt" height="397.000000pt" viewBox="0 0 397.000000 397.000000"
 preserveAspectRatio="xMidYMid meet">
<metadata>
Created by potrace 1.11, written by Peter Selinger 2001-2013
</metadata>
<g transform="translate(0.000000,397.000000) scale(0.100000,-0.100000)"
fill="#000000" stroke="none">
<path d="M1988 3913 c12 -2 32 -2 45 0 12 2 2 4 -23 4 -25 0 -35 -2 -22 -4z"/>
<path d="M2188 3913 c18 -2 45 -2 60 0 15 2 0 4 -33 4 -33 0 -45 -2 -27 -4z"/>
<path d="M1893 3903 c9 -2 23 -2 30 0 6 3 -1 5 -18 5 -16 0 -22 -2 -12 -5z"/>
<path d="M2338 3903 c7 -3 16 -2 19 1 4 3 -2 6 -13 5 -11 0 -14 -3 -6 -6z"/>
<path d="M1838 3893 c7 -3 16 -2 19 1 4 3 -2 6 -13 5 -11 0 -14 -3 -6 -6z"/>
<path d="M2378 3893 c6 -2 18 -2 25 0 6 3 1 5 -13 5 -14 0 -19 -2 -12 -5z"/>
<path d="M1778 3883 c7 -3 16 -2 19 1 4 3 -2 6 -13 5 -11 0 -14 -3 -6 -6z"/>
<path d="M1738 3873 c7 -3 16 -2 19 1 4 3 -2 6 -13 5 -11 0 -14 -3 -6 -6z"/>
<path d="M1658 3853 c7 -3 16 -2 19 1 4 3 -2 6 -13 5 -11 0 -14 -3 -6 -6z"/>
<path d="M2558 3853 c7 -3 16 -2 19 1 4 3 -2 6 -13 5 -11 0 -14 -3 -6 -6z"/>
<path d="M1570 3830 c-18 -12 -2 -12 25 0 13 6 15 9 5 9 -8 0 -22 -4 -30 -9z"/>
<path d="M2780 3776 c0 -2 7 -7 16 -10 8 -3 12 -2 9 4 -6 10 -25 14 -25 6z"/>
<path d="M3028 3733 c6 -2 18 -2 25 0 6 3 1 5 -13 5 -14 0 -19 -2 -12 -5z"/>
<path d="M1207 3690 c3 -11 9 -22 13 -25 5 -3 6 4 3 15 -3 11 -9 22 -13 25 -5
3 -6 -4 -3 -15z"/>
<path d="M2910 3704 c0 -2 9 -8 20 -14 11 -6 20 -7 20 -2 0 6 -9 12 -20 15
-11 3 -20 3 -20 1z"/>
<path d="M999 3683 c-13 -16 -12 -17 4 -4 9 7 17 15 17 17 0 8 -8 3 -21 -13z"/>
<path d="M2110 3690 c-14 -4 -19 -8 -12 -9 6 -1 12 -9 12 -19 0 -10 -6 -24
-12 -32 -11 -12 -10 -12 4 -1 9 7 23 9 30 5 10 -6 10 -4 -1 9 -17 21 -7 51 15
43 8 -3 12 -2 9 4 -7 11 -10 11 -45 0z"/>
<path d="M3140 3686 c0 -2 8 -10 18 -17 15 -13 16 -12 3 4 -13 16 -21 21 -21
13z"/>
<path d="M2060 3665 c-14 -17 -10 -47 8 -53 11 -3 11 0 1 16 -10 17 -10 23 0
36 8 9 11 16 8 16 -2 0 -10 -7 -17 -15z"/>
<path d="M2178 3653 c5 -21 7 -23 10 -9 2 10 0 22 -6 28 -6 6 -7 0 -4 -19z"/>
<path d="M1093 3663 c9 -2 23 -2 30 0 6 3 -1 5 -18 5 -16 0 -22 -2 -12 -5z"/>
<path d="M3039 3653 c-13 -17 -13 -17 6 -3 11 8 22 16 24 17 2 2 0 3 -6 3 -6
0 -17 -8 -24 -17z"/>
<path d="M3030 3613 c0 -6 8 -17 18 -24 16 -13 16 -13 2 6 -8 11 -16 22 -17
24 -2 2 -3 0 -3 -6z"/>
<path d="M1106 3591 c-10 -11 -28 -22 -40 -24 -20 -4 -20 -4 0 -6 11 0 31 10
44 24 13 14 21 25 18 25 -3 0 -13 -9 -22 -19z"/>
<path d="M950 3551 c0 -6 4 -13 10 -16 6 -3 7 1 4 9 -7 18 -14 21 -14 7z"/>
<path d="M3176 3543 c-6 -14 -5 -15 5 -6 7 7 10 15 7 18 -3 3 -9 -2 -12 -12z"/>
<path d="M2038 3533 c17 -2 47 -2 65 0 17 2 3 4 -33 4 -36 0 -50 -2 -32 -4z"/>
<path d="M1918 3523 c6 -2 18 -2 25 0 6 3 1 5 -13 5 -14 0 -19 -2 -12 -5z"/>
<path d="M2203 3523 c9 -2 25 -2 35 0 9 3 1 5 -18 5 -19 0 -27 -2 -17 -5z"/>
<path d="M1858 3513 c7 -3 16 -2 19 1 4 3 -2 6 -13 5 -11 0 -14 -3 -6 -6z"/>
<path d="M2278 3513 c7 -3 16 -2 19 1 4 3 -2 6 -13 5 -11 0 -14 -3 -6 -6z"/>
<path d="M1805 3501 c3 -5 1 -12 -5 -16 -5 -3 -10 -11 -10 -18 0 -6 7 -2 15 9
17 23 19 34 4 34 -5 0 -8 -4 -4 -9z"/>
<path d="M2341 3503 c9 -2 22 -14 28 -26 6 -12 9 -14 7 -4 -4 11 0 17 12 18
14 0 14 2 -3 9 -11 5 -29 8 -40 8 -14 0 -16 -2 -4 -5z"/>
<path d="M960 3458 c-15 -21 -17 -28 -6 -19 16 13 41 51 33 51 -2 0 -14 -15
-27 -32z"/>
<path d="M2428 3483 c7 -3 16 -2 19 1 4 3 -2 6 -13 5 -11 0 -14 -3 -6 -6z"/>
<path d="M2475 3472 c31 -14 83 -24 65 -13 -8 5 -31 11 -50 15 -24 4 -28 3
-15 -2z"/>
<path d="M1901 3454 c0 -11 3 -14 6 -6 3 7 2 16 -1 19 -3 4 -6 -2 -5 -13z"/>
<path d="M3225 3440 c10 -11 20 -20 23 -20 3 0 -3 9 -13 20 -10 11 -20 20 -23
20 -3 0 3 -9 13 -20z"/>
<path d="M1573 3438 c-13 -6 -23 -15 -23 -20 0 -7 31 8 59 29 10 7 -16 1 -36
-9z"/>
<path d="M2501 3430 c14 -31 19 -36 19 -24 0 6 -7 19 -16 30 -14 18 -14 18 -3
-6z"/>
<path d="M2580 3440 c8 -5 20 -10 25 -10 6 0 3 5 -5 10 -8 5 -19 10 -25 10 -5
0 -3 -5 5 -10z"/>
<path d="M2630 3420 c8 -5 20 -10 25 -10 6 0 3 5 -5 10 -8 5 -19 10 -25 10 -5
0 -3 -5 5 -10z"/>
<path d="M1911 3404 c0 -11 3 -14 6 -6 3 7 2 16 -1 19 -3 4 -6 -2 -5 -13z"/>
<path d="M905 3374 c-9 -14 -15 -27 -13 -30 2 -2 12 10 22 26 21 37 15 40 -9
4z"/>
<path d="M1464 3384 c-18 -14 -18 -14 6 -3 31 14 36 19 24 19 -6 0 -19 -7 -30
-16z"/>
<path d="M2540 3350 c11 -22 23 -40 25 -40 3 0 -4 18 -15 40 -11 22 -23 40
-25 40 -3 0 4 -18 15 -40z"/>
<path d="M2718 3378 c11 -14 52 -31 52 -22 0 2 -15 11 -32 20 -28 14 -31 15
-20 2z"/>
<path d="M1532 3341 c-6 -17 -7 -33 -3 -36 9 -5 25 55 17 62 -2 2 -8 -10 -14
-26z"/>
<path d="M2790 3334 c8 -10 15 -20 16 -22 1 -2 5 1 8 7 4 5 -4 15 -16 22 -22
12 -22 11 -8 -7z"/>
<path d="M1691 3307 c-13 -21 -12 -21 5 -5 10 10 16 20 13 22 -3 3 -11 -5 -18
-17z"/>
<path d="M1931 3314 c0 -11 3 -14 6 -6 3 7 2 16 -1 19 -3 4 -6 -2 -5 -13z"/>
<path d="M2261 3284 c0 -16 3 -23 6 -16 4 10 10 9 27 -5 17 -14 16 -12 -4 12
-14 17 -26 32 -27 34 -2 2 -3 -9 -2 -25z"/>
<path d="M2741 3294 c0 -11 3 -14 6 -6 3 7 2 16 -1 19 -3 4 -6 -2 -5 -13z"/>
<path d="M2850 3306 c0 -3 9 -10 20 -16 11 -6 20 -8 20 -6 0 3 -9 10 -20 16
-11 6 -20 8 -20 6z"/>
<path d="M1319 3283 c-13 -16 -12 -17 4 -4 9 7 17 15 17 17 0 8 -8 3 -21 -13z"/>
<path d="M2580 3280 c6 -11 13 -20 16 -20 2 0 0 9 -6 20 -6 11 -13 20 -16 20
-2 0 0 -9 6 -20z"/>
<path d="M2810 3295 c0 -5 5 -17 10 -25 5 -8 10 -10 10 -5 0 6 -5 17 -10 25
-5 8 -10 11 -10 5z"/>
<path d="M851 3264 c0 -11 3 -14 6 -6 3 7 2 16 -1 19 -3 4 -6 -2 -5 -13z"/>
<path d="M2900 3277 c0 -3 12 -12 26 -22 15 -9 23 -12 20 -6 -7 11 -46 35 -46
28z"/>
<path d="M2743 3220 c0 -30 2 -43 4 -27 2 15 2 39 0 55 -2 15 -4 2 -4 -28z"/>
<path d="M2430 3250 c-9 -6 -10 -10 -3 -10 6 0 15 5 18 10 8 12 4 12 -15 0z"/>
<path d="M1239 3213 l-24 -28 28 24 c25 23 32 31 24 31 -2 0 -14 -12 -28 -27z"/>
<path d="M2273 3180 c0 -30 2 -43 4 -27 2 15 2 39 0 55 -2 15 -4 2 -4 -28z"/>
<path d="M2846 3217 c3 -10 9 -15 12 -12 3 3 0 11 -7 18 -10 9 -11 8 -5 -6z"/>
<path d="M2990 3218 c0 -2 21 -21 48 -43 26 -21 38 -28 27 -16 -19 23 -75 66
-75 59z"/>
<path d="M2355 3186 c10 -14 19 -26 22 -26 7 0 -17 39 -28 46 -6 3 -3 -5 6
-20z"/>
<path d="M2433 3165 c0 -22 2 -30 4 -17 2 12 2 30 0 40 -3 9 -5 -1 -4 -23z"/>
<path d="M1512 3160 c0 -19 2 -27 5 -17 2 9 2 25 0 35 -3 9 -5 1 -5 -18z"/>
<path d="M1179 3153 l-24 -28 28 24 c25 23 32 31 24 31 -2 0 -14 -12 -28 -27z"/>
<path d="M2660 3156 c0 -2 8 -10 18 -17 15 -13 16 -12 3 4 -13 16 -21 21 -21
13z"/>
<path d="M1121 3086 l-24 -31 28 27 c16 15 27 29 24 31 -2 3 -15 -10 -28 -27z"/>
<path d="M2690 3116 c0 -2 8 -10 18 -17 15 -13 16 -12 3 4 -13 16 -21 21 -21
13z"/>
<path d="M2262 3080 c0 -14 2 -19 5 -12 2 6 2 18 0 25 -3 6 -5 1 -5 -13z"/>
<path d="M3140 3070 c12 -16 24 -30 26 -30 3 0 -4 14 -16 30 -12 17 -24 30
-26 30 -3 0 4 -13 16 -30z"/>
<path d="M2637 3068 c-108 -8 -223 -41 -237 -68 -14 -26 -13 -30 8 -30 15 0
15 -2 2 -11 -12 -9 -11 -10 5 -4 116 38 276 49 383 26 73 -16 98 -6 69 27 -9
10 -15 21 -12 24 3 3 -25 13 -62 24 -55 16 -84 18 -156 12z"/>
<path d="M1547 3054 c-88 -17 -139 -33 -132 -44 3 -4 -2 -13 -10 -20 -21 -18
-19 -30 7 -30 21 0 21 0 2 -15 -12 -9 9 -5 54 10 40 14 105 29 143 33 71 9
198 -1 229 -18 11 -6 23 -5 34 3 16 12 15 15 -7 39 -40 43 -202 64 -320 42z"/>
<path d="M1370 3040 c-6 -11 -8 -20 -6 -20 3 0 10 9 16 20 6 11 8 20 6 20 -3
0 -10 -9 -16 -20z"/>
<path d="M1079 3033 c-13 -16 -12 -17 4 -4 9 7 17 15 17 17 0 8 -8 3 -21 -13z"/>
<path d="M2940 3021 c0 -6 4 -13 10 -16 6 -3 7 1 4 9 -7 18 -14 21 -14 7z"/>
<path d="M3170 3026 c0 -2 8 -10 18 -17 15 -13 16 -12 3 4 -13 16 -21 21 -21
13z"/>
<path d="M3093 2985 c0 -22 2 -30 4 -17 2 12 2 30 0 40 -3 9 -5 -1 -4 -23z"/>
<path d="M2107 2989 c7 -7 15 -10 18 -7 3 3 -2 9 -12 12 -14 6 -15 5 -6 -5z"/>
<path d="M1151 2974 c0 -11 3 -14 6 -6 3 7 2 16 -1 19 -3 4 -6 -2 -5 -13z"/>
<path d="M3210 2970 c6 -11 13 -20 16 -20 2 0 0 9 -6 20 -6 11 -13 20 -16 20
-2 0 0 -9 6 -20z"/>
<path d="M751 2954 c0 -11 3 -14 6 -6 3 7 2 16 -1 19 -3 4 -6 -2 -5 -13z"/>
<path d="M2533 2957 c-47 -11 -56 -24 -20 -29 15 -2 23 -11 25 -29 4 -32 -17
-51 -60 -52 -30 -2 -33 1 -33 25 1 36 -13 25 -37 -29 -30 -68 -19 -120 36
-171 96 -89 306 -79 378 18 41 56 35 150 -13 204 -60 69 -160 92 -276 63z
m140 -112 c-3 -8 -9 -15 -14 -15 -10 0 -12 24 -3 33 11 11 24 -3 17 -18z m-53
0 c0 -8 -6 -15 -14 -15 -17 0 -28 14 -19 24 12 12 33 6 33 -9z m-44 -74 c-4
-5 2 -8 11 -6 10 2 46 6 81 9 59 5 62 5 52 -13 -19 -37 -120 -56 -120 -23 0
14 -2 15 -10 2 -11 -17 -40 -5 -48 20 -3 7 0 10 7 6 6 -4 11 -2 11 3 0 6 5 11
11 11 5 0 8 -4 5 -9z"/>
<path d="M2620 2745 c0 -8 2 -15 4 -15 2 0 6 7 10 15 3 8 1 15 -4 15 -6 0 -10
-7 -10 -15z"/>
<path d="M2660 2749 c0 -5 5 -7 10 -4 6 3 10 8 10 11 0 2 -4 4 -10 4 -5 0 -10
-5 -10 -11z"/>
<path d="M2971 2965 c0 -5 6 -21 14 -35 8 -14 14 -20 14 -15 0 6 -6 21 -14 35
-8 14 -14 21 -14 15z"/>
<path d="M3441 2954 c0 -11 3 -14 6 -6 3 7 2 16 -1 19 -3 4 -6 -2 -5 -13z"/>
<path d="M1572 2943 l-22 -4 21 -18 c18 -14 20 -21 10 -38 -11 -22 -63 -39
-82 -28 -6 4 -9 18 -6 31 5 31 -4 30 -35 -1 -49 -49 -62 -154 -27 -212 35 -56
89 -77 192 -76 73 1 96 5 142 27 130 64 136 214 13 290 -38 23 -61 29 -115 32
-38 1 -78 0 -91 -3z m48 -104 c0 -10 -7 -19 -15 -19 -15 0 -21 31 -9 43 11 10
24 -3 24 -24z m60 1 c0 -5 -7 -10 -15 -10 -8 0 -15 5 -15 10 0 6 7 10 15 10 8
0 15 -4 15 -10z m-38 -104 c5 -6 8 -7 8 -1 0 6 18 10 40 10 51 1 53 -20 5 -41
-58 -24 -135 -1 -135 40 0 18 69 12 82 -8z"/>
<path d="M1143 2905 c0 -22 2 -30 4 -17 2 12 2 30 0 40 -3 9 -5 -1 -4 -23z"/>
<path d="M3234 2910 c13 -75 26 -272 28 -420 l1 -155 7 110 c4 61 13 125 20
143 20 53 9 215 -20 282 -30 70 -43 86 -36 40z m40 -84 c17 -57 20 -154 7
-221 -6 -33 -8 -19 -14 72 -4 62 -10 133 -14 158 -8 61 2 57 21 -9z"/>
<path d="M742 2910 c0 -14 2 -19 5 -12 2 6 2 18 0 25 -3 6 -5 1 -5 -13z"/>
<path d="M3451 2914 c0 -11 3 -14 6 -6 3 7 2 16 -1 19 -3 4 -6 -2 -5 -13z"/>
<path d="M966 2853 c-43 -88 -66 -190 -66 -299 0 -119 10 -101 14 27 2 57 10
127 17 154 12 45 14 48 21 25 5 -17 6 -13 2 15 -3 26 -1 35 4 27 7 -10 11 -3
17 24 3 21 13 51 21 66 8 15 12 28 9 28 -2 0 -20 -30 -39 -67z"/>
<path d="M3082 2880 c0 -14 2 -19 5 -12 2 6 2 18 0 25 -3 6 -5 1 -5 -13z"/>
<path d="M1256 2865 c-9 -26 -7 -32 5 -12 6 10 9 21 6 23 -2 3 -7 -2 -11 -11z"/>
<path d="M725 2830 c-4 -23 -5 -43 -2 -46 2 -3 7 14 11 37 4 23 5 44 2 46 -2
2 -7 -14 -11 -37z"/>
<path d="M3462 2850 c0 -14 2 -19 5 -12 2 6 2 18 0 25 -3 6 -5 1 -5 -13z"/>
<path d="M3046 2810 c3 -14 8 -27 11 -30 6 -7 23 23 22 40 0 10 -3 8 -8 -5 -8
-19 -8 -19 -20 0 -11 18 -11 18 -5 -5z"/>
<path d="M3472 2780 c0 -19 2 -27 5 -17 2 9 2 25 0 35 -3 9 -5 1 -5 -18z"/>
<path d="M1141 2756 l-1 -29 25 23 c29 27 34 42 6 16 -18 -17 -19 -17 -24 1
-3 11 -5 7 -6 -11z"/>
<path d="M712 2730 c0 -19 2 -27 5 -17 2 9 2 25 0 35 -3 9 -5 1 -5 -18z"/>
<path d="M930 2665 c-7 -36 -10 -68 -8 -70 3 -3 10 25 17 61 6 37 10 68 8 71
-3 2 -10 -26 -17 -62z"/>
<path d="M3482 2695 c0 -16 2 -22 5 -12 2 9 2 23 0 30 -3 6 -5 -1 -5 -18z"/>
<path d="M703 2650 c0 -25 2 -35 4 -22 2 12 2 32 0 45 -2 12 -4 2 -4 -23z"/>
<path d="M3072 2645 c0 -16 2 -22 5 -12 2 9 2 23 0 30 -3 6 -5 -1 -5 -18z"/>
<path d="M3492 2615 c0 -16 2 -22 5 -12 2 9 2 23 0 30 -3 6 -5 -1 -5 -18z"/>
<path d="M693 2530 c0 -30 2 -43 4 -27 2 15 2 39 0 55 -2 15 -4 2 -4 -28z"/>
<path d="M1828 2563 c7 -3 16 -2 19 1 4 3 -2 6 -13 5 -11 0 -14 -3 -6 -6z"/>
<path d="M2415 2560 c-16 -7 -14 -8 12 -7 18 1 33 5 33 10 0 9 -19 8 -45 -3z"/>
<path d="M1789 2533 c-13 -16 -12 -17 4 -4 9 7 17 15 17 17 0 8 -8 3 -21 -13z"/>
<path d="M2502 2514 c20 -22 43 -55 52 -74 10 -22 14 -26 10 -10 -8 34 -49 92
-76 109 -15 9 -10 0 14 -25z"/>
<path d="M1968 2523 c7 -3 16 -2 19 1 4 3 -2 6 -13 5 -11 0 -14 -3 -6 -6z"/>
<path d="M2288 2523 c6 -2 18 -2 25 0 6 3 1 5 -13 5 -14 0 -19 -2 -12 -5z"/>
<path d="M2028 2513 c6 -2 18 -2 25 0 6 3 1 5 -13 5 -14 0 -19 -2 -12 -5z"/>
<path d="M2228 2513 c6 -2 18 -2 25 0 6 3 1 5 -13 5 -14 0 -19 -2 -12 -5z"/>
<path d="M1739 2483 l-24 -28 28 24 c25 23 32 31 24 31 -2 0 -14 -12 -28 -27z"/>
<path d="M2113 2503 c15 -2 37 -2 50 0 12 2 0 4 -28 4 -27 0 -38 -2 -22 -4z"/>
<path d="M3512 2460 c0 -19 2 -27 5 -17 2 9 2 25 0 35 -3 9 -5 1 -5 -18z"/>
<path d="M683 2370 c0 -47 2 -66 4 -42 2 23 2 61 0 85 -2 23 -4 4 -4 -43z"/>
<path d="M892 2420 c0 -19 2 -27 5 -17 2 9 2 25 0 35 -3 9 -5 1 -5 -18z"/>
<path d="M3072 2430 c0 -14 2 -19 5 -12 2 6 2 18 0 25 -3 6 -5 1 -5 -13z"/>
<path d="M1182 2370 c0 -19 2 -27 5 -17 2 9 2 25 0 35 -3 9 -5 1 -5 -18z"/>
<path d="M3521 2384 c0 -11 3 -14 6 -6 3 7 2 16 -1 19 -3 4 -6 -2 -5 -13z"/>
<path d="M1681 2374 c0 -11 3 -14 6 -6 3 7 2 16 -1 19 -3 4 -6 -2 -5 -13z"/>
<path d="M884 2255 c0 -71 1 -99 3 -62 2 37 2 96 0 130 -2 34 -3 4 -3 -68z"/>
<path d="M3532 2310 c0 -19 2 -27 5 -17 2 9 2 25 0 35 -3 9 -5 1 -5 -18z"/>
<path d="M3252 2295 c-1 -22 -11 -91 -22 -154 -11 -63 -18 -117 -16 -119 2 -2
7 10 11 26 3 16 21 47 39 68 18 22 40 50 49 64 18 26 23 70 8 70 -4 0 -6 -10
-4 -22 3 -15 -7 -39 -28 -66 -41 -56 -54 -44 -39 34 6 33 10 77 7 99 l-4 40
-1 -40z"/>
<path d="M1181 2274 c0 -11 3 -14 6 -6 3 7 2 16 -1 19 -3 4 -6 -2 -5 -13z"/>
<path d="M2572 2260 c0 -19 2 -27 5 -17 2 9 2 25 0 35 -3 9 -5 1 -5 -18z"/>
<path d="M1200 2251 c0 -6 4 -13 10 -16 6 -3 7 1 4 9 -7 18 -14 21 -14 7z"/>
<path d="M3278 2226 c-19 -14 -26 -42 -8 -31 9 6 34 45 28 45 -2 0 -11 -7 -20
-14z"/>
<path d="M673 2185 c0 -22 2 -30 4 -17 2 12 2 30 0 40 -3 9 -5 -1 -4 -23z"/>
<path d="M1220 2216 c0 -2 8 -10 18 -17 15 -13 16 -12 3 4 -13 16 -21 21 -21
13z"/>
<path d="M1178 2118 c5 -112 12 -128 12 -29 l0 71 28 -17 c15 -10 43 -29 62
-44 19 -15 51 -30 70 -34 19 -4 58 -21 86 -36 28 -16 55 -29 60 -29 5 0 -15
14 -45 30 -62 34 -103 65 -157 115 -20 19 -39 34 -41 31 -2 -2 13 -18 33 -35
47 -42 36 -52 -18 -16 -57 37 -89 66 -82 76 3 5 1 9 -4 9 -5 0 -7 -40 -4 -92z
m173 -35 c13 -15 12 -15 -8 -4 -24 12 -29 21 -14 21 5 0 15 -7 22 -17z"/>
<path d="M3552 2155 c0 -16 2 -22 5 -12 2 9 2 23 0 30 -3 6 -5 -1 -5 -18z"/>
<path d="M2519 2143 c-13 -16 -12 -17 4 -4 16 13 21 21 13 21 -2 0 -10 -8 -17
-17z"/>
<path d="M2920 2145 c-11 -13 -10 -14 4 -9 9 3 16 10 16 15 0 13 -6 11 -20 -6z"/>
<path d="M662 2105 c0 -16 2 -22 5 -12 2 9 2 23 0 30 -3 6 -5 -1 -5 -18z"/>
<path d="M2851 2100 c-61 -40 -64 -46 -9 -19 26 13 49 30 52 37 7 15 10 16
-43 -18z"/>
<path d="M891 2082 c-2 -58 18 -181 34 -212 13 -24 13 -23 20 25 11 84 27 145
36 139 11 -7 11 7 0 25 -11 17 -28 -35 -38 -111 -3 -27 -9 -48 -13 -48 -7 0
-22 86 -34 195 -2 21 -3 17 -5 -13z"/>
<path d="M2942 2090 c0 -14 2 -19 5 -12 2 6 2 18 0 25 -3 6 -5 1 -5 -13z"/>
<path d="M651 2044 c0 -11 3 -14 6 -6 3 7 2 16 -1 19 -3 4 -6 -2 -5 -13z"/>
<path d="M2770 2050 c-8 -5 -52 -24 -97 -41 -46 -18 -81 -34 -79 -36 6 -6 159
55 182 72 21 16 17 20 -6 5z"/>
<path d="M3572 2020 c0 -19 2 -27 5 -17 2 9 2 25 0 35 -3 9 -5 1 -5 -18z"/>
<path d="M2930 2030 c0 -5 5 -10 11 -10 5 0 7 5 4 10 -3 6 -8 10 -11 10 -2 0
-4 -4 -4 -10z"/>
<path d="M990 2015 c0 -5 5 -17 10 -25 5 -8 10 -10 10 -5 0 6 -5 17 -10 25 -5
8 -10 11 -10 5z"/>
<path d="M2832 1991 c-22 -16 -43 -36 -48 -43 -4 -7 4 -3 17 8 13 12 40 31 59
43 19 11 30 21 24 21 -6 0 -29 -13 -52 -29z"/>
<path d="M3137 2006 c-4 -10 -5 -21 -2 -24 9 -9 17 6 13 25 -3 17 -4 17 -11
-1z"/>
<path d="M1192 1980 c0 -19 2 -27 5 -17 2 9 2 25 0 35 -3 9 -5 1 -5 -18z"/>
<path d="M3186 1945 c-17 -61 -38 -92 -29 -42 2 12 0 33 -6 47 -8 20 -10 11
-9 -48 1 -59 3 -71 13 -60 15 16 58 144 53 158 -2 6 -12 -19 -22 -55z"/>
<path d="M642 1980 c0 -14 2 -19 5 -12 2 6 2 18 0 25 -3 6 -5 1 -5 -13z"/>
<path d="M1510 1996 c0 -6 122 -46 139 -46 9 1 -18 12 -59 25 -83 27 -80 27
-80 21z"/>
<path d="M1011 1965 c0 -5 6 -21 14 -35 8 -14 14 -20 14 -15 0 6 -6 21 -14 35
-8 14 -14 21 -14 15z"/>
<path d="M2558 1965 c-3 -3 -47 -16 -99 -30 -52 -13 -85 -24 -74 -25 24 0 162
37 184 50 9 5 11 10 5 10 -6 0 -13 -2 -16 -5z"/>
<path d="M3117 1951 c-4 -17 -3 -21 5 -13 5 5 8 16 6 23 -3 8 -7 3 -11 -10z"/>
<path d="M3581 1954 c0 -11 3 -14 6 -6 3 7 2 16 -1 19 -3 4 -6 -2 -5 -13z"/>
<path d="M1672 1945 c7 -7 208 -35 248 -34 19 1 -26 9 -100 19 -157 22 -155
22 -148 15z"/>
<path d="M2931 1934 c0 -11 3 -14 6 -6 3 7 2 16 -1 19 -3 4 -6 -2 -5 -13z"/>
<path d="M1202 1910 c0 -19 2 -27 5 -17 2 9 2 25 0 35 -3 9 -5 1 -5 -18z"/>
<path d="M2732 1909 c-19 -17 -32 -32 -30 -35 3 -2 20 12 38 31 42 43 37 45
-8 4z"/>
<path d="M3075 1877 c-16 -22 -34 -48 -39 -56 -8 -14 -7 -14 7 -2 10 8 19 12
21 10 17 -19 181 -313 238 -425 l71 -140 0 -220 c1 -224 -8 -310 -41 -407 -10
-28 -24 -53 -31 -55 -7 -2 -11 2 -10 9 3 20 -10 65 -37 127 -13 29 -23 55 -23
58 0 10 -47 60 -61 66 -12 4 -16 -8 -18 -66 -3 -90 -17 -151 -55 -246 -30 -74
-55 -115 -65 -105 -3 3 -16 -5 -29 -17 -28 -26 -31 -13 -3 17 l20 21 -29 0
c-17 0 -28 -3 -25 -8 3 -5 10 -6 15 -3 5 4 9 1 9 -5 0 -7 -9 -14 -20 -17 -21
-6 -28 -25 -7 -20 7 1 11 -6 9 -18 -2 -15 4 -12 27 15 17 19 31 30 31 25 0 -6
-20 -30 -44 -55 -37 -35 -45 -39 -43 -23 1 14 7 19 17 17 8 -3 5 1 -7 7 -23
12 -30 44 -25 126 1 18 -4 33 -12 36 -9 4 -12 0 -9 -12 2 -9 -5 -27 -16 -40
-12 -13 -21 -28 -21 -33 0 -5 -4 -6 -10 -3 -5 3 -8 0 -5 -7 3 -7 -18 -39 -45
-71 -28 -33 -50 -52 -50 -43 0 9 4 16 9 16 4 0 6 10 4 23 -3 16 12 45 56 102
35 45 59 86 56 95 -27 89 -56 202 -54 203 2 1 39 20 83 42 105 53 113 66 87
140 -20 56 -31 78 -31 60 0 -5 8 -29 17 -53 13 -35 14 -45 4 -52 -11 -6 -11
-9 0 -13 10 -4 6 -13 -16 -32 -30 -25 -125 -75 -143 -75 -11 0 -32 53 -32 81
0 11 7 19 17 19 9 0 14 2 11 5 -6 6 -152 -30 -283 -70 -44 -13 -70 -24 -58
-24 19 -1 83 -64 83 -82 0 -7 -77 -2 -187 12 -46 6 -81 14 -78 19 2 4 -7 5
-21 2 -14 -2 -23 -6 -21 -8 8 -8 167 -33 252 -40 76 -6 85 -9 80 -25 -3 -9 -1
-20 4 -24 7 -4 9 1 5 12 -3 10 18 -7 46 -37 28 -30 53 -65 56 -77 8 -29 -66
-188 -79 -171 -6 9 -7 8 -4 -4 8 -24 -61 -77 -75 -57 -6 10 -7 7 -3 -10 6 -20
4 -23 -9 -18 -10 4 -15 3 -13 -1 3 -4 -2 -13 -10 -21 -13 -12 -15 -11 -10 5 4
10 11 73 17 138 6 65 13 123 16 127 3 5 1 9 -4 9 -5 0 -14 -10 -21 -22 -11
-23 -11 -23 -5 2 4 19 3 22 -5 10 -6 -8 -8 -22 -6 -31 6 -19 -78 -145 -95
-141 -6 1 -8 -2 -5 -8 7 -11 -21 -50 -36 -50 -4 0 -15 7 -23 16 -21 20 -21 6
0 -17 14 -16 13 -20 -19 -54 l-35 -37 -7 97 c-7 89 -6 99 14 125 11 16 21 37
21 47 0 13 -8 8 -30 -17 -16 -19 -29 -30 -30 -24 0 5 6 16 13 24 10 12 9 12
-4 2 -9 -6 -19 -8 -24 -4 -4 4 -2 -3 4 -16 11 -20 10 -27 -4 -42 -9 -10 -22
-17 -28 -16 -7 2 -8 1 -4 -2 5 -2 1 -13 -9 -23 -9 -10 -21 -16 -27 -12 -5 3
-7 2 -4 -4 3 -5 -10 -25 -29 -44 -23 -22 -37 -30 -42 -22 -5 8 -13 7 -27 -4
-20 -15 -20 -15 3 -8 12 3 22 4 22 0 0 -13 -56 -54 -67 -50 -7 2 -12 -1 -10
-7 7 -34 -33 -10 -103 62 -72 73 -101 113 -67 94 7 -4 9 -3 4 2 -5 5 -14 9
-20 9 -6 0 -30 30 -53 68 -49 79 -56 76 -80 -29 -30 -129 -37 -149 -42 -134
-2 8 -24 55 -48 104 -24 49 -44 96 -44 104 0 8 15 43 34 76 18 34 45 83 60
109 30 55 35 52 -89 67 -49 5 -108 12 -130 15 -32 4 -35 3 -15 -4 14 -5 38 -9
53 -10 16 -1 26 -5 22 -11 -3 -6 -1 -11 4 -11 6 -1 15 -2 21 -3 5 0 15 -7 21
-13 7 -7 21 -13 30 -13 10 0 21 -5 24 -10 4 -6 10 -8 15 -5 17 11 18 -11 2
-45 -29 -61 -31 -62 -55 -45 -12 9 -40 20 -62 26 -22 6 -56 14 -75 20 l-36 9
4 63 4 64 -38 6 c-61 10 -74 6 -24 -7 l45 -12 -2 -50 c-1 -27 -7 -105 -12
-174 -9 -105 -8 -127 4 -140 8 -9 15 -27 15 -39 0 -21 -6 -18 -60 29 -33 29
-60 56 -60 62 0 5 4 6 10 3 6 -4 7 1 3 11 -4 11 -8 13 -11 6 -5 -15 -22 -16
-22 -2 0 6 -9 20 -19 32 -25 26 -67 113 -76 155 -4 18 -10 33 -14 33 -9 0 -26
-54 -36 -112 -4 -21 -11 -36 -15 -33 -4 2 -5 -8 -2 -23 8 -47 -22 -5 -56 78
-53 131 -65 234 -38 323 32 105 -45 13 -107 -127 -24 -56 -48 -110 -52 -121
-15 -42 -29 29 -29 155 -1 124 -1 125 32 178 27 44 30 56 21 74 -7 13 -7 18
-1 14 6 -3 13 -2 17 4 4 6 10 8 14 5 5 -2 35 23 68 58 94 98 158 153 289 249
94 69 152 103 161 94 4 -4 -11 -105 -32 -216 -4 -17 -3 -20 3 -10 5 8 17 62
27 120 10 58 22 113 27 123 5 9 6 17 2 17 -17 0 -140 -74 -223 -134 -50 -37
-91 -63 -91 -59 0 5 -5 0 -11 -10 -6 -9 -15 -14 -21 -11 -7 5 -8 2 -3 -6 6
-10 4 -12 -7 -8 -33 13 -230 -164 -306 -274 -76 -111 -151 -286 -157 -367 -4
-54 -6 -55 -24 -16 -11 22 -20 37 -20 34 -2 -13 32 -86 61 -132 26 -41 33 -46
47 -35 14 12 15 11 2 -5 -13 -16 -12 -21 7 -40 l22 -21 -5 22 c-2 12 0 20 5
17 5 -3 7 -15 5 -27 -3 -16 6 -34 32 -60 20 -20 40 -35 45 -32 4 3 5 -2 2 -10
-6 -14 5 -21 29 -17 4 0 6 -4 5 -10 -8 -33 286 -199 498 -283 l91 -36 722 0
722 0 75 31 c44 18 71 35 67 41 -3 7 -1 8 5 4 15 -9 165 62 157 74 -3 5 1 7 9
4 18 -7 126 63 123 79 -1 6 5 11 13 12 33 1 191 157 175 173 -3 3 -11 0 -16
-8 -9 -13 -10 -13 -6 0 2 8 12 14 21 14 10 -1 31 20 53 55 38 59 108 209 101
217 -3 2 -16 -26 -31 -62 -27 -68 -97 -194 -109 -194 -3 0 5 23 20 51 32 66
61 203 62 296 0 145 -38 323 -93 427 -12 23 -22 43 -22 46 -4 22 -179 334
-201 359 -2 2 -6 2 -9 -1 -3 -3 3 -16 14 -30 20 -24 17 -41 -7 -46 -10 -2 -11
4 -7 19 5 15 4 19 -4 15 -6 -4 -11 -2 -11 4 0 6 -9 21 -20 33 -11 12 -18 27
-15 35 2 7 1 11 -4 8 -12 -8 -56 76 -53 104 2 17 0 21 -6 12 -7 -10 -11 -10
-21 2 -7 8 -9 21 -5 27 4 7 3 9 -3 6 -6 -4 -15 4 -21 17 -8 19 -6 30 9 56 29
47 19 45 -16 -3z m221 -363 c4 -14 2 -30 -3 -35 -6 -6 -9 -1 -9 13 1 13 -5 23
-13 23 -23 0 -23 21 -1 22 14 1 22 -6 26 -23z m26 -36 c-7 -7 -12 -19 -12 -27
0 -11 4 -10 16 5 15 18 15 18 5 -3 -6 -12 -8 -29 -5 -37 10 -27 -5 -18 -20 12
-14 28 -4 62 18 62 6 0 5 -5 -2 -12z m29 -86 c-7 -13 -6 -23 1 -30 7 -7 9 -14
6 -18 -4 -3 -12 4 -18 16 -9 16 -9 25 1 36 16 20 22 18 10 -4z m-2361 -177
c-13 -14 -27 -25 -32 -25 -5 0 3 11 18 25 15 14 29 25 32 25 3 0 -5 -11 -18
-25z m-54 -60 c-3 -9 -11 -13 -16 -10 -8 5 -7 11 1 21 14 18 24 11 15 -11z
m25 -269 c-7 -8 -10 -20 -7 -25 4 -5 2 -12 -4 -16 -5 -3 -10 1 -10 10 0 21 20
58 27 51 3 -3 0 -12 -6 -20z m1829 -36 c0 -5 -17 -9 -37 -9 -38 1 -38 1 -8 9
43 11 45 11 45 0z m-90 -20 c-8 -5 -26 -9 -40 -9 -23 1 -23 2 5 9 43 11 52 11
35 0z m-60 -34 c-6 -6 -18 -5 -32 1 -21 10 -21 10 9 9 19 -1 28 -5 23 -10z
m-73 -14 c-13 -3 -16 -9 -12 -20 5 -13 2 -12 -13 3 -17 18 -17 21 -3 26 9 3
23 4 31 0 12 -4 11 -6 -3 -9z m218 -42 c-16 -17 -35 -28 -43 -25 -7 2 -11 1
-8 -4 3 -5 -14 -25 -38 -45 -37 -30 -46 -33 -56 -21 -6 8 -8 20 -4 26 4 7 3 9
-3 6 -6 -4 -18 2 -28 13 -18 19 -17 20 8 20 15 0 27 4 27 8 0 4 32 19 71 32
39 14 73 29 76 33 3 5 10 4 16 -2 8 -8 3 -19 -18 -41z m63 -100 l29 -105 -26
-34 c-14 -20 -65 -85 -113 -145 -51 -63 -96 -130 -107 -160 l-19 -51 -7 45
c-6 41 0 58 54 181 34 75 61 143 61 151 0 8 -14 34 -31 58 -17 23 -27 46 -22
51 15 15 148 117 150 115 1 -1 15 -49 31 -106z m-1225 57 c3 -8 -1 -14 -8 -14
-7 0 -11 6 -8 14 3 7 6 13 8 13 2 0 5 -6 8 -13z m27 3 c0 -5 -2 -10 -4 -10 -3
0 -8 5 -11 10 -3 6 -1 10 4 10 6 0 11 -4 11 -10z m-117 -125 c20 -8 37 -22 37
-30 0 -8 -13 -40 -29 -72 l-29 -56 29 -81 c17 -45 41 -98 54 -118 23 -34 24
-41 14 -88 -13 -59 -29 -57 -29 3 0 40 -5 48 -88 130 -48 48 -92 84 -96 80 -4
-4 -6 -3 -5 2 2 6 -4 21 -13 35 -15 22 -16 38 -8 120 5 52 10 100 10 107 0 13
90 -5 153 -32z m-905 -10 c-3 -3 -9 2 -12 12 -6 14 -5 15 5 6 7 -7 10 -15 7
-18z m117 -155 c10 -11 16 -20 13 -20 -3 0 -13 9 -23 20 -10 11 -16 20 -13 20
3 0 13 -9 23 -20z m70 -49 c3 -5 2 -12 -3 -15 -5 -3 -9 1 -9 9 0 17 3 19 12 6z
m2285 -235 c0 -2 -7 -7 -16 -10 -8 -3 -12 -2 -9 4 6 10 25 14 25 6z m-215 -96
c-3 -5 -14 -10 -23 -9 -14 0 -13 2 3 9 27 11 27 11 20 0z"/>
<path d="M3592 1895 c0 -16 2 -22 5 -12 2 9 2 23 0 30 -3 6 -5 -1 -5 -18z"/>
<path d="M1980 1901 c25 -7 25 -8 3 -15 -35 -11 -83 -73 -83 -106 0 -35 -10
-37 -75 -14 -26 8 -52 13 -58 11 -6 -2 20 -12 58 -22 50 -13 79 -28 102 -50
17 -18 42 -35 55 -38 21 -5 22 -5 3 6 -77 47 -99 116 -49 162 53 49 98 63 187
58 45 -2 116 0 157 5 64 8 47 9 -125 10 -110 0 -189 -3 -175 -7z"/>
<path d="M621 1884 c0 -11 3 -14 6 -6 3 7 2 16 -1 19 -3 4 -6 -2 -5 -13z"/>
<path d="M1056 1868 c30 -60 76 -122 128 -175 53 -56 66 -63 66 -37 0 8 -5 12
-10 9 -16 -10 -103 85 -150 164 -44 73 -63 96 -34 39z"/>
<path d="M1212 1840 c0 -19 2 -27 5 -17 2 9 2 25 0 35 -3 9 -5 1 -5 -18z"/>
<path d="M2648 1835 c-21 -19 -34 -35 -30 -35 5 0 23 16 42 35 44 45 36 45
-12 0z"/>
<path d="M3602 1830 c0 -14 2 -19 5 -12 2 6 2 18 0 25 -3 6 -5 1 -5 -13z"/>
<path d="M2895 1806 c-11 -12 -45 -41 -75 -66 -30 -24 -59 -47 -64 -51 -5 -4
6 -73 25 -155 18 -81 35 -142 36 -137 2 5 -10 70 -27 144 l-30 134 33 30 c48
43 101 84 105 81 1 -2 -2 -15 -8 -30 -19 -50 -14 -59 23 -40 38 20 93 64 79
64 -5 0 -15 -7 -23 -16 -14 -17 -69 -48 -75 -42 -2 2 3 26 11 53 8 26 14 49
13 50 -2 1 -12 -7 -23 -19z"/>
<path d="M601 1794 c0 -11 3 -14 6 -6 3 7 2 16 -1 19 -3 4 -6 -2 -5 -13z"/>
<path d="M1222 1780 c-1 -14 3 -43 7 -65 6 -26 9 -31 9 -15 1 14 -3 43 -7 65
-6 26 -9 31 -9 15z"/>
<path d="M2095 1776 c-15 -15 -25 -34 -23 -44 9 -49 147 -61 261 -23 37 12 67
27 67 32 0 6 -8 6 -19 -1 -11 -5 -31 -11 -45 -12 -13 -1 -23 -5 -20 -9 4 -7
-67 -21 -74 -14 -2 2 1 11 6 21 8 14 3 23 -26 46 -19 16 -38 25 -41 22 -3 -4
0 -9 7 -11 24 -9 43 -36 40 -57 -3 -19 -9 -21 -66 -21 -59 0 -81 10 -82 37 0
9 27 35 42 41 7 2 10 8 6 12 -4 4 -19 -5 -33 -19z"/>
<path d="M2148 1793 c7 -3 16 -2 19 1 4 3 -2 6 -13 5 -11 0 -14 -3 -6 -6z"/>
<path d="M3612 1770 c0 -14 2 -19 5 -12 2 6 2 18 0 25 -3 6 -5 1 -5 -13z"/>
<path d="M2278 1753 c7 -3 16 -2 19 1 4 3 -2 6 -13 5 -11 0 -14 -3 -6 -6z"/>
<path d="M2328 1743 c7 -3 16 -2 19 1 4 3 -2 6 -13 5 -11 0 -14 -3 -6 -6z"/>
<path d="M2506 1725 c-11 -8 -15 -15 -9 -15 6 0 16 7 23 15 16 19 11 19 -14 0z"/>
<path d="M3158 1733 c6 -2 9 -10 6 -15 -4 -7 -2 -8 5 -4 13 9 5 26 -12 25 -9
0 -8 -2 1 -6z"/>
<path d="M581 1714 c0 -11 3 -14 6 -6 3 7 2 16 -1 19 -3 4 -6 -2 -5 -13z"/>
<path d="M3180 1702 c0 -5 7 -15 15 -22 8 -7 15 -9 15 -6 0 4 -7 14 -15 22 -8
9 -15 11 -15 6z"/>
<path d="M1880 1660 c-20 -6 -21 -8 -5 -8 11 0 34 4 50 8 27 7 27 8 5 8 -14 0
-36 -4 -50 -8z"/>
<path d="M561 1644 c0 -11 3 -14 6 -6 3 7 2 16 -1 19 -3 4 -6 -2 -5 -13z"/>
<path d="M3215 1650 c3 -5 11 -10 16 -10 6 0 7 5 4 10 -3 6 -11 10 -16 10 -6
0 -7 -4 -4 -10z"/>
<path d="M3632 1635 c0 -16 2 -22 5 -12 2 9 2 23 0 30 -3 6 -5 -1 -5 -18z"/>
<path d="M1750 1631 l-25 -7 27 -6 c15 -3 25 -2 23 3 -3 4 3 10 12 12 12 3 13
5 3 5 -8 0 -26 -3 -40 -7z"/>
<path d="M2338 1633 c7 -3 16 -2 19 1 4 3 -2 6 -13 5 -11 0 -14 -3 -6 -6z"/>
<path d="M2128 1623 c7 -3 16 -2 19 1 4 3 -2 6 -13 5 -11 0 -14 -3 -6 -6z"/>
<path d="M2198 1623 c23 -2 59 -2 80 0 20 2 1 4 -43 4 -44 0 -61 -2 -37 -4z"/>
<path d="M1698 1613 c7 -3 16 -2 19 1 4 3 -2 6 -13 5 -11 0 -14 -3 -6 -6z"/>
<path d="M1628 1593 c7 -3 16 -2 19 1 4 3 -2 6 -13 5 -11 0 -14 -3 -6 -6z"/>
<path d="M1535 1565 c-25 -12 -26 -14 -5 -9 28 7 60 23 45 23 -5 0 -23 -6 -40
-14z"/>
<path d="M2239 1563 c-13 -16 -12 -17 4 -4 9 7 17 15 17 17 0 8 -8 3 -21 -13z"/>
<path d="M3641 1554 c0 -11 3 -14 6 -6 3 7 2 16 -1 19 -3 4 -6 -2 -5 -13z"/>
<path d="M1461 1539 c-13 -5 -22 -11 -20 -13 7 -7 59 6 59 15 0 11 -8 11 -39
-2z"/>
<path d="M2184 1518 l-19 -23 23 19 c21 18 27 26 19 26 -2 0 -12 -10 -23 -22z"/>
<path d="M2235 1511 c-3 -5 -2 -12 3 -15 5 -3 9 1 9 9 0 17 -3 19 -12 6z"/>
<path d="M3652 1490 c0 -19 2 -27 5 -17 2 9 2 25 0 35 -3 9 -5 1 -5 -18z"/>
<path d="M522 1470 c0 -14 2 -19 5 -12 2 6 2 18 0 25 -3 6 -5 1 -5 -13z"/>
<path d="M1923 1483 c9 -2 23 -2 30 0 6 3 -1 5 -18 5 -16 0 -22 -2 -12 -5z"/>
<path d="M2186 1461 c-4 -5 3 -7 14 -4 23 6 26 13 6 13 -8 0 -17 -4 -20 -9z"/>
<path d="M512 1405 c0 -16 2 -22 5 -12 2 9 2 23 0 30 -3 6 -5 -1 -5 -18z"/>
<path d="M3662 1405 c0 -16 2 -22 5 -12 2 9 2 23 0 30 -3 6 -5 -1 -5 -18z"/>
<path d="M2820 1373 c0 -14 29 -83 35 -83 3 0 -3 19 -12 43 -18 47 -23 55 -23
40z"/>
<path d="M3672 1320 c0 -19 2 -27 5 -17 2 9 2 25 0 35 -3 9 -5 1 -5 -18z"/>
<path d="M502 1315 c0 -16 2 -22 5 -12 2 9 2 23 0 30 -3 6 -5 -1 -5 -18z"/>
<path d="M2860 1275 c0 -5 5 -17 10 -25 5 -8 10 -10 10 -5 0 6 -5 17 -10 25
-5 8 -10 11 -10 5z"/>
<path d="M493 1225 c0 -22 2 -30 4 -17 2 12 2 30 0 40 -3 9 -5 -1 -4 -23z"/>
<path d="M3683 1195 c0 -38 2 -53 4 -32 2 20 2 52 0 70 -2 17 -4 1 -4 -38z"/>
<path d="M1327 1207 c-30 -39 -97 -159 -97 -173 0 -5 15 18 33 51 18 33 47 81
65 108 38 54 37 63 -1 14z"/>
<path d="M2881 1225 c0 -5 6 -21 14 -35 8 -14 14 -20 14 -15 0 6 -6 21 -14 35
-8 14 -14 21 -14 15z"/>
<path d="M2941 1071 c12 -34 23 -60 25 -58 5 5 -26 100 -37 112 -5 5 0 -19 12
-54z"/>
<path d="M483 1055 c0 -38 2 -53 4 -32 2 20 2 52 0 70 -2 17 -4 1 -4 -38z"/>
<path d="M3683 1040 c0 -30 2 -43 4 -27 2 15 2 39 0 55 -2 15 -4 2 -4 -28z"/>
<path d="M867 1073 c-4 -3 -7 -11 -7 -17 0 -6 5 -5 12 2 6 6 9 14 7 17 -3 3
-9 2 -12 -2z"/>
<path d="M1202 957 c-6 -24 -14 -69 -18 -100 -6 -55 -6 -57 20 -67 49 -18 82
-21 36 -3 -54 22 -57 33 -36 133 17 81 15 107 -2 37z"/>
<path d="M3672 940 c0 -19 2 -27 5 -17 2 9 2 25 0 35 -3 9 -5 1 -5 -18z"/>
<path d="M492 900 c0 -14 2 -19 5 -12 2 6 2 18 0 25 -3 6 -5 1 -5 -13z"/>
<path d="M3662 875 c0 -16 2 -22 5 -12 2 9 2 23 0 30 -3 6 -5 -1 -5 -18z"/>
<path d="M2873 883 c9 -2 23 -2 30 0 6 3 -1 5 -18 5 -16 0 -22 -2 -12 -5z"/>
<path d="M501 840 c0 -8 4 -24 9 -35 5 -13 9 -14 9 -5 0 8 -4 24 -9 35 -5 13
-9 14 -9 5z"/>
<path d="M3261 824 c0 -11 3 -14 6 -6 3 7 2 16 -1 19 -3 4 -6 -2 -5 -13z"/>
<path d="M3652 820 c0 -14 2 -19 5 -12 2 6 2 18 0 25 -3 6 -5 1 -5 -13z"/>
<path d="M3641 774 c0 -11 3 -14 6 -6 3 7 2 16 -1 19 -3 4 -6 -2 -5 -13z"/>
<path d="M521 770 c0 -8 4 -22 9 -30 12 -18 12 -2 0 25 -6 13 -9 15 -9 5z"/>
<path d="M2388 753 c7 -3 16 -2 19 1 4 3 -2 6 -13 5 -11 0 -14 -3 -6 -6z"/>
<path d="M2348 743 c7 -3 16 -2 19 1 4 3 -2 6 -13 5 -11 0 -14 -3 -6 -6z"/>
<path d="M3282 730 c0 -14 2 -19 5 -12 2 6 2 18 0 25 -3 6 -5 1 -5 -13z"/>
<path d="M3632 730 c0 -14 2 -19 5 -12 2 6 2 18 0 25 -3 6 -5 1 -5 -13z"/>
<path d="M2213 713 c9 -2 23 -2 30 0 6 3 -1 5 -18 5 -16 0 -22 -2 -12 -5z"/>
<path d="M1718 703 c12 -2 30 -2 40 0 9 3 -1 5 -23 4 -22 0 -30 -2 -17 -4z"/>
<path d="M2090 700 l-55 -7 50 0 c28 0 64 3 80 7 26 7 27 8 5 7 -14 0 -50 -3
-80 -7z"/>
<path d="M1808 693 c18 -2 45 -2 60 0 15 2 0 4 -33 4 -33 0 -45 -2 -27 -4z"/>
<path d="M1928 683 c18 -2 45 -2 60 0 15 2 0 4 -33 4 -33 0 -45 -2 -27 -4z"/>
<path d="M3121 664 c0 -11 3 -14 6 -6 3 7 2 16 -1 19 -3 4 -6 -2 -5 -13z"/>
<path d="M3292 650 c0 -14 2 -19 5 -12 2 6 2 18 0 25 -3 6 -5 1 -5 -13z"/>
<path d="M1052 615 c0 -16 2 -22 5 -12 2 9 2 23 0 30 -3 6 -5 -1 -5 -18z"/>
<path d="M1062 560 c0 -14 2 -19 5 -12 2 6 2 18 0 25 -3 6 -5 1 -5 -13z"/>
<path d="M3047 541 c-4 -17 -3 -21 5 -13 5 5 8 16 6 23 -3 8 -7 3 -11 -10z"/>
<path d="M3051 484 c0 -11 3 -14 6 -6 3 7 2 16 -1 19 -3 4 -6 -2 -5 -13z"/>
<path d="M2930 470 c0 -5 5 -10 10 -10 6 0 10 5 10 10 0 6 -4 10 -10 10 -5 0
-10 -4 -10 -10z"/>
<path d="M1790 431 c0 -6 4 -13 10 -16 6 -3 7 1 4 9 -7 18 -14 21 -14 7z"/>
<path d="M2407 433 c-4 -3 -7 -13 -7 -22 1 -13 3 -13 11 2 11 19 8 33 -4 20z"/>
<path d="M2171 414 c0 -11 3 -14 6 -6 3 7 2 16 -1 19 -3 4 -6 -2 -5 -13z"/>
<path d="M2415 388 l-16 -33 20 25 c20 24 26 40 16 40 -2 0 -12 -15 -20 -32z"/>
<path d="M2791 357 c-13 -21 -12 -21 5 -5 10 10 16 20 13 22 -3 3 -11 -5 -18
-17z"/>
<path d="M1640 350 c6 -11 13 -20 16 -20 2 0 0 9 -6 20 -6 11 -13 20 -16 20
-2 0 0 -9 6 -20z"/>
<path d="M2120 360 c-9 -6 -10 -10 -3 -10 6 0 15 5 18 10 8 12 4 12 -15 0z"/>
<path d="M1870 338 c0 -9 7 -22 17 -29 15 -13 15 -12 3 11 -17 34 -20 36 -20
18z"/>
<path d="M2360 330 c-8 -5 -12 -12 -9 -15 4 -3 12 1 19 10 14 17 11 19 -10 5z"/>
<path d="M2090 320 c0 -5 5 -10 11 -10 5 0 7 5 4 10 -3 6 -8 10 -11 10 -2 0
-4 -4 -4 -10z"/>
<path d="M2566 313 c-6 -14 -5 -15 5 -6 7 7 10 15 7 18 -3 3 -9 -2 -12 -12z"/>
<path d="M2298 302 c-3 -11 0 -19 7 -19 7 0 10 8 7 19 -2 10 -6 18 -7 18 -1 0
-5 -8 -7 -18z"/>
<path d="M1907 273 c3 -7 8 -13 12 -13 4 0 8 6 8 13 0 8 -6 14 -13 14 -7 0
-10 -6 -7 -14z"/>
<path d="M2002 281 c-10 -6 -9 -11 4 -22 14 -11 16 -11 10 0 -5 8 -3 17 5 22
8 5 10 9 4 9 -5 0 -16 -4 -23 -9z"/>
<path d="M2290 254 c0 -8 5 -12 10 -9 6 4 8 11 5 16 -9 14 -15 11 -15 -7z"/>
<path d="M1940 246 c0 -2 7 -6 15 -10 8 -3 15 -1 15 4 0 6 -7 10 -15 10 -8 0
-15 -2 -15 -4z"/>
<path d="M2030 229 c0 -5 5 -7 10 -4 6 3 10 8 10 11 0 2 -4 4 -10 4 -5 0 -10
-5 -10 -11z"/>
<path d="M1975 210 c3 -5 11 -10 16 -10 6 0 7 5 4 10 -3 6 -11 10 -16 10 -6 0
-7 -4 -4 -10z"/>
</g>
</svg>
